<?xml version="1.0" encoding="utf-8"?>
<!-- Generator: Adobe Illustrator 23.0.1, SVG Export Plug-In . SVG Version: 6.00 Build 0)  -->
<svg version="1.1" id="e4fde902-34f0-42ac-83bb-70aac2088463"
	 xmlns="http://www.w3.org/2000/svg" xmlns:xlink="http://www.w3.org/1999/xlink" x="0px" y="0px" viewBox="0 0 855.4 610.8"
	 style="enable-background:new 0 0 855.4 610.8;" xml:space="preserve">
<style type="text/css">
	.st0{fill:#E6E6E6;}
	.st1{fill:#3F3D56;}
	.st2{fill:#FFFFFF;}
	.st3{fill:#F25C54;stroke:#000000;stroke-width:2;stroke-miterlimit:10;}
	.st4{fill:#F25C54;}
	.st5{fill:#F25C54;stroke:#FFFFFF;stroke-miterlimit:10;}
	.st6{fill-rule:evenodd;clip-rule:evenodd;fill:#638DA0;}
	.st7{fill-rule:evenodd;clip-rule:evenodd;fill:#4C5665;}
	.st8{fill-rule:evenodd;clip-rule:evenodd;fill:#F25C54;}
	.st9{fill-rule:evenodd;clip-rule:evenodd;fill:#577685;}
	.st10{fill-rule:evenodd;clip-rule:evenodd;fill:#974D4C;}
</style>
<circle class="st0" cx="39.5" cy="110.7" r="13.6"/>
<circle class="st0" cx="80.4" cy="110.7" r="13.6"/>
<circle class="st0" cx="121.3" cy="110.7" r="13.6"/>
<circle class="st0" cx="162.2" cy="110.7" r="13.6"/>
<circle class="st0" cx="203.1" cy="110.7" r="13.6"/>
<circle class="st0" cx="244" cy="110.7" r="13.6"/>
<circle class="st0" cx="284.9" cy="110.7" r="13.6"/>
<path class="st0" d="M316.4,127.3H8c-3.1,0-5.5-2.5-5.5-5.5V99.7c0-3.1,2.5-5.5,5.5-5.5h308.3c3.1,0,5.5,2.5,5.5,5.5v22.1
	C321.9,124.8,319.4,127.3,316.4,127.3z M8,96.3c-1.8,0-3.3,1.5-3.3,3.3v22.1c0,1.8,1.5,3.3,3.3,3.3h308.3c1.8,0,3.3-1.5,3.3-3.3
	V99.7c0-1.8-1.5-3.3-3.3-3.3L8,96.3z"/>
<polygon class="st0" points="562.1,603.1 448.4,603.1 452.3,553 558.3,553 "/>
<rect x="442.6" y="597.3" class="st0" width="127.2" height="11.6"/>
<path class="st1" d="M723.1,230.1H288.4c-6.4,0-11.6,5.2-11.6,11.6l0,0v265h457.8v-265C734.6,235.3,729.5,230.1,723.1,230.1
	L723.1,230.1z"/>
<path class="st0" d="M276.9,506.7v43.4c0,6.4,5.2,11.6,11.6,11.6l0,0h434.6c6.4,0,11.6-5.2,11.6-11.6l0,0v-43.4H276.9z"/>
<rect x="299" y="254.2" class="st0" width="412.5" height="231.3"/>
<circle class="st1" cx="506.2" cy="533.7" r="11.6"/>
<circle class="st2" cx="312.9" cy="261.8" r="2.2"/>
<circle class="st2" cx="321.2" cy="261.8" r="2.2"/>
<circle class="st2" cx="329.5" cy="261.8" r="2.2"/>
<path class="st0" d="M465.8,299c-0.8,0-1.4,0.6-1.4,1.4v69.5c0,0.8,0.6,1.4,1.4,1.4H546c0.8,0,1.4-0.6,1.4-1.4v-69.5
	c0-0.8-0.6-1.4-1.4-1.4H465.8z"/>
<path class="st0" d="M593.6,298.3c-0.8,0-1.4,0.6-1.4,1.4v70.2c0,0.8,0.6,1.4,1.4,1.4h81c0.8,0,1.4-0.6,1.4-1.4v-70.2
	c0-0.8-0.6-1.4-1.4-1.4H593.6z"/>
<path class="st0" d="M338.1,405.7c-1.6,0-2.8,1.3-2.8,2.9c0,1.6,1.3,2.8,2.8,2.8h75.7c1.6,0,2.8-1.3,2.8-2.9c0-1.6-1.3-2.8-2.8-2.8
	H338.1z"/>
<path class="st0" d="M468.6,405.7c-1.6,0-2.8,1.3-2.8,2.9c0,1.6,1.3,2.8,2.8,2.8h75.7c1.6,0,2.8-1.3,2.8-2.9c0-1.6-1.3-2.8-2.8-2.8
	H468.6z"/>
<path class="st0" d="M596,405.7c-1.6,0-2.8,1.3-2.8,2.9c0,1.6,1.3,2.8,2.8,2.8h75.7c1.6,0,2.8-1.3,2.8-2.9c0-1.6-1.3-2.8-2.8-2.8
	H596z"/>
<path class="st0" d="M338.1,391.7c-1.6,0-2.8,1.3-2.8,2.9c0,1.6,1.3,2.8,2.8,2.8h75.7c1.6,0,2.8-1.3,2.8-2.9c0-1.6-1.3-2.8-2.8-2.8
	H338.1z"/>
<path class="st0" d="M468.6,391.7c-1.6,0-2.8,1.3-2.8,2.9c0,1.6,1.3,2.8,2.8,2.8h75.7c1.6,0,2.8-1.3,2.8-2.9c0-1.6-1.3-2.8-2.8-2.8
	H468.6z"/>
<path class="st0" d="M596,391.7c-1.6,0-2.8,1.3-2.8,2.9c0,1.6,1.3,2.8,2.8,2.8h75.7c1.6,0,2.8-1.3,2.8-2.9c0-1.6-1.3-2.8-2.8-2.8
	H596z"/>
<path class="st3" d="M502.9,129.6h-52c-9.9,0-18,8.1-18,18v52c0,9.9,8.1,18,18,18h52c9.9,0,18-8.1,18-18v-52
	C520.9,137.7,512.8,129.6,502.9,129.6z"/>
<path class="st3" d="M387.2,13.8l-36.8,36.8c-7,7-7,18.4,0,25.5l36.8,36.8c7,7,18.4,7,25.5,0L449.4,76c7-7,7-18.4,0-25.5l-36.8-36.8
	C405.6,6.8,394.2,6.8,387.2,13.8z"/>
<path class="st3" d="M106.4,6.1h-52c-9.9,0-18,8.1-18,18v52c0,9.9,8.1,18,18,18h52c9.9,0,18-8.1,18-18v-52
	C124.4,14.2,116.4,6.1,106.4,6.1z"/>
<polygon class="st4" points="460.4,352.2 429.9,391.8 426.9,391.8 453.8,355 "/>
<polygon class="st4" points="402.9,393.3 373.4,353.7 369.4,353.7 399.4,393.3 "/>
<path class="st4" d="M424.1,400.7L424.1,400.7c0.6,0,1.2-0.4,1.6-0.9l0,0c1.4-2.1-1.7-4.3-3.2-2.3l0,0
	C421.4,398.8,422.4,400.7,424.1,400.7z"/>
<g transform="translate(0.000000,100.000000) scale(0.100000,-0.100000)">
	<path class="st4" d="M3952.9-2163.6c-139-43.5-279.6-159.4-326-266.4c-19.2-44.6-17.6-50.2,9.6-63.5c51.1-25.6,131-36.8,188.6-25.6
		c97.5,17.8,108.7,31.2,123,130.4c14.4,94.7,57.5,179.4,115.1,221.8l90.8,30.6c-31.9-1.7-63.7-3.3-95.6-5
		C4037.6-2141.3,3989.7-2151.4,3952.9-2163.6z"/>
	<path class="st4" d="M4196.6-2172c49.5-36.8,99.1-122.6,108.7-189.5c16-118.1,22.4-129.3,70.3-147.1c3.6-1.3,18.4-7.1,38.7-10.2
		c0,0,2.5-0.4,5.1-0.7c92.5-11.7,183.1,14.2,183.1,14.2c16.5,4.7,33.2,10.8,39.5,25.2c3,6.8,3,15.5-1.1,27.2
		c-51.3,144.9-292.2,312-439.4,306.5c-22.5-0.8-44.9,3.3-67.4,5C4154.8-2151.5,4175.7-2161.7,4196.6-2172z"/>
</g>
<path class="st3" d="M424.3,382.8h-24.8c-5.3,0-9.6,4.3-9.6,9.6v26.9c0,5.3,4.3,9.6,9.6,9.6h24.8c5.3,0,9.6-4.3,9.6-9.6v-26.9
	C433.9,387,429.6,382.8,424.3,382.8z"/>
<path class="st4" d="M399.2,390.7l-30-39.7L399.2,390.7z"/>
<path class="st4" d="M425.5,396.5l30.4-39.7L425.5,396.5z"/>
<path class="st4" d="M464.4,342.2"/>
<path class="st4" d="M373.9,348.2"/>
<path class="st4" d="M361.4,346.5c3.4,2.9,8.3,5.9,14.2,5.7c6-0.2,10.8-3.4,14.2-6.5"/>
<path class="st4" d="M388.4,342.2c-0.2,0.7,9.9,10.2,23.2,10.5c13.8,0.2,24.4-9.8,24.3-10.5c-0.2-0.7-10,7.5-24.3,7.3
	C397.9,349.3,388.6,341.6,388.4,342.2z"/>
<path class="st4" d="M411.9,344.2"/>
<path class="st3" d="M256.4,6.1h-52c-9.9,0-18,8.1-18,18v52c0,9.9,8.1,18,18,18h52c9.9,0,18-8.1,18-18v-52
	C274.4,14.2,266.3,6.1,256.4,6.1z"/>
<polygon class="st4" points="610,304.3 579.5,343.9 576.5,343.9 603.4,307.1 "/>
<polygon class="st4" points="552.5,345.4 523,305.8 519,305.8 549,345.4 "/>
<path class="st4" d="M573.6,352.8L573.6,352.8c0.6,0,1.2-0.4,1.6-0.9v0c1.4-2.1-1.7-4.3-3.2-2.3l0,0
	C570.9,350.9,571.9,352.9,573.6,352.8z"/>
<g transform="translate(0.000000,100.000000) scale(0.100000,-0.100000)">
	<path class="st4" d="M5448.8-1684.9c-139-43.5-279.6-159.4-326-266.4c-19.2-44.6-17.6-50.2,9.6-63.5c51.1-25.6,131-36.8,188.6-25.6
		c97.5,17.8,108.7,31.2,123,130.4c14.4,94.7,57.5,179.4,115.1,221.8l90.8,30.6c-31.9-1.7-63.7-3.3-95.6-5
		C5533.5-1662.6,5485.6-1672.7,5448.8-1684.9z"/>
	<path class="st4" d="M5692.5-1693.3c49.5-36.8,99.1-122.6,108.7-189.5c16-118.1,22.4-129.3,70.3-147.1c3.6-1.3,18.4-7.1,38.7-10.2
		c0,0,2.5-0.4,5.1-0.7c92.5-11.7,183.1,14.2,183.1,14.2c16.5,4.7,33.2,10.8,39.5,25.2c3,6.8,3,15.5-1.1,27.2
		c-51.3,144.9-292.2,312-439.4,306.5c-22.5-0.8-44.9,3.3-67.4,5C5650.7-1672.9,5671.6-1683.1,5692.5-1693.3z"/>
</g>
<path class="st3" d="M573.9,334.9h-24.8c-5.3,0-9.6,4.3-9.6,9.6v26.9c0,5.3,4.3,9.6,9.6,9.6h24.8c5.3,0,9.6-4.3,9.6-9.6v-26.9
	C583.5,339.2,579.2,334.9,573.9,334.9z"/>
<path class="st4" d="M548.8,342.8l-30-39.7L548.8,342.8z"/>
<path class="st4" d="M575.1,348.7l30.4-39.7L575.1,348.7z"/>
<path class="st4" d="M614,294.3"/>
<path class="st4" d="M523.5,300.3"/>
<path class="st4" d="M511,298.6c3.4,2.9,8.3,5.9,14.2,5.7c6-0.2,10.8-3.4,14.2-6.5"/>
<path class="st4" d="M538,294.4c-0.2,0.7,9.9,10.2,23.2,10.5c13.8,0.2,24.4-9.8,24.3-10.5c-0.2-0.7-10,7.5-24.3,7.3
	C547.5,301.4,538.1,293.7,538,294.4z"/>
<path class="st4" d="M561.5,296.3"/>
<path class="st4" d="M612.2,439l-14.3,18.6c-0.6,0.7-1.5,1.2-2.4,1.2l0,0l13-17.7c0.3-0.4,0.8-0.8,1.3-1L612.2,439z"/>
<path class="st4" d="M583.5,459.5L569.7,441c-0.6-0.8-1.5-1.2-2.4-1.2h-0.5l14.1,18.6c0.6,0.8,1.5,1.2,2.4,1.2H583.5z"/>
<path class="st4" d="M594.1,463.2L594.1,463.2c0.3,0,0.6-0.2,0.8-0.5v0c0.7-1.1-0.8-2.2-1.6-1.2v0
	C592.7,462.3,593.2,463.3,594.1,463.2z"/>
<g transform="translate(0.000000,100.000000) scale(0.100000,-0.100000)">
	<path class="st5" d="M5796.8-3210.9c-69.5-21.7-139.8-79.7-163-133.2c-9.6-22.3-8.8-25.1,4.8-31.8c25.6-12.8,65.5-18.4,94.3-12.8
		c48.7,8.9,54.3,15.6,61.5,65.2c6.8,45,26.7,85.5,53.3,107.6c2.8,2.3,6,3.9,9.4,5l40.3,13.6c-15.9-0.8-31.9-1.7-47.8-2.5
		C5839.2-3199.7,5815.2-3204.7,5796.8-3210.9z"/>
	<path class="st4" d="M5915.6-3213.5c2-1,3.9-2.1,5.7-3.5c23.9-19.4,47.1-60.4,51.7-92.7c8-59.1,11.2-64.6,35.2-73.6
		c1.8-0.7,9.2-3.5,19.4-5.1c0,0,1.2-0.2,2.5-0.4c46.3-5.8,91.6,7.1,91.6,7.1c8.2,2.4,16.6,5.4,19.7,12.6c1.5,3.4,1.5,7.7-0.6,13.6
		c-25.6,72.4-146.1,156-219.7,153.2c-11.3-0.4-22.5,1.7-33.7,2.5C5896.8-3204.3,5906.2-3208.9,5915.6-3213.5z"/>
</g>
<path class="st3" d="M595.9,454.3H580c-1.7,0-3,1.4-3,3v16.9c0,1.7,1.4,3,3,3h15.9c1.7,0,3-1.4,3-3v-16.9
	C599,455.6,597.6,454.3,595.9,454.3z"/>
<path class="st4" d="M581.7,458.3l-15-19.8L581.7,458.3z"/>
<path class="st4" d="M594.8,461.2l15.2-19.8L594.8,461.2z"/>
<path class="st4" d="M614.2,434"/>
<path class="st4" d="M569,437"/>
<path class="st4" d="M562.7,436.2c1.7,1.4,4.2,2.9,7.1,2.8c3-0.1,5.4-1.7,7.1-3.3"/>
<path class="st4" d="M576.2,434c-0.1,0.3,5,5.1,11.6,5.2c6.9,0.1,12.2-4.9,12.1-5.2c-0.1-0.3-5,3.7-12.1,3.6
	C581,437.5,576.3,433.7,576.2,434z"/>
<path class="st4" d="M588,435"/>
<g id="Page-1">
	<g id="blimp">
		<path id="Fill-5" class="st6" d="M316.2,295.4c0-0.1,0-0.3-0.1-0.4l0.6,0.1C316.6,295.2,316.4,295.3,316.2,295.4"/>
		<path id="Fill-6" class="st7" d="M357.6,311c0,1.8-3.1,3.3-5,3.3h-10c-1.8,0-5-1.5-5-3.3s-0.2-3.3,1.7-3.3H356
			C357.8,307.7,357.6,309.2,357.6,311"/>
		<path id="Fill-7" class="st8" d="M319.5,287.6c-2,0-13.9-12.6-11.6-13.3h9.7c5.3,0,13,2.7,16.9,6.6l-4.9,0.4
			c1.1,1.5,0.4,2.7-1.7,2.7L319.5,287.6"/>
		<path id="Fill-8" class="st8" d="M318.1,307.5c2,0,20.2-9.2,18-10l-16-3.3c-5.3,0-8.1,6-11.9,10l-0.1,0.4
			c-1.1,1.5-0.4,2.7,1.7,2.7L318.1,307.5"/>
		<path id="Fill-11" class="st9" d="M316.8,295.1l-0.6-0.1c-0.1-0.8,0-1.6,0.1-2.4c0.2,0.8,0.5,1.6,0.9,2.3
			C317,295,316.9,295,316.8,295.1"/>
		<path id="Fill-12" class="st10" d="M317.3,295.2l-0.6-0.1c0.1-0.1,0.3-0.1,0.4-0.2L317.3,295.2"/>
		<path id="Fill-9" class="st8" d="M384.2,290.9c0,9.2-16.4,16.6-36.5,16.6c-20.2,0-36.5-7.4-36.5-16.6s16.4-16.6,36.5-16.6
			C367.9,274.3,384.2,281.8,384.2,290.9"/>
	</g>
</g>
</svg>
